<svg width="153" height="151" viewBox="0 0 153 151" fill="none" xmlns="http://www.w3.org/2000/svg">
<path d="M76.5 0C34.2529 0 0 34.3344 0 76.6822C0 112.614 24.684 142.68 57.9615 151C57.6045 149.965 57.375 148.763 57.375 147.275V134.168C54.2704 134.168 49.0684 134.168 47.7615 134.168C42.5276 134.168 37.8739 131.913 35.6171 127.721C33.1117 123.062 32.6782 115.937 26.469 111.579C24.6266 110.128 26.0291 108.473 28.152 108.697C32.0726 109.809 35.3239 112.506 38.3839 116.506C41.4311 120.512 42.8655 121.42 48.5584 121.42C51.3187 121.42 55.4497 121.26 59.3385 120.647C61.4295 115.324 65.0441 110.422 69.462 108.109C43.9875 105.483 31.8304 92.7791 31.8304 75.532C31.8304 68.1066 34.986 60.924 40.3474 54.8725C38.5879 48.8657 36.3758 36.6157 41.0231 31.9509C52.4854 31.9509 59.415 39.4019 61.0789 41.4148C66.7909 39.453 73.0639 38.3411 79.6556 38.3411C86.2601 38.3411 92.5586 39.453 98.2834 41.4275C99.9281 39.4274 106.864 31.9509 118.352 31.9509C123.018 36.6221 120.781 48.9232 119.002 54.9172C124.332 60.9559 127.468 68.1193 127.468 75.532C127.468 92.7663 115.33 105.464 89.8939 108.103C96.8936 111.764 102 122.052 102 129.804V147.275C102 147.939 101.853 148.418 101.777 148.987C131.586 138.514 153 110.141 153 76.6822C153 34.3344 118.747 0 76.5 0Z" fill="#FFCE00"/>
</svg>
